<group>
ampeg_attack=0.100000
ampeg_release=0.500000

<region>
sample=Harmonica-Hohner-Special20-F/Releases/Normal/Hohner-Special20-F_Normal_rel_F3.wav
pitch_keycenter=53
lokey=53.0
hikey=55.0
tune=-10
volume=6.000000

<region>
sample=Harmonica-Hohner-Special20-F/Releases/Normal/Hohner-Special20-F_Normal_rel_A3.wav
pitch_keycenter=57
lokey=56.0
hikey=58.0
tune=-1
volume=-6.490250

<region>
sample=Harmonica-Hohner-Special20-F/Releases/Normal/Hohner-Special20-F_Normal_rel_C4.wav
pitch_keycenter=60
lokey=59.0
hikey=62.0
tune=-3
volume=0.586998

<region>
sample=Harmonica-Hohner-Special20-F/Releases/Normal/Hohner-Special20-F_Normal_rel_F4.wav
pitch_keycenter=65
lokey=63.0
hikey=67.0
tune=-4
volume=6.000000

<region>
sample=Harmonica-Hohner-Special20-F/Releases/Normal/Hohner-Special20-F_Normal_rel_A4.wav
pitch_keycenter=69
lokey=68.0
hikey=70.0
tune=-1
volume=-0.954863

<region>
sample=Harmonica-Hohner-Special20-F/Releases/Normal/Hohner-Special20-F_Normal_rel_C5.wav
pitch_keycenter=72
lokey=71.0
hikey=74.0
tune=-4
volume=4.241851

<region>
sample=Harmonica-Hohner-Special20-F/Releases/Normal/Hohner-Special20-F_Normal_rel_F5.wav
pitch_keycenter=77
lokey=75.0
hikey=80.0
tune=-1
volume=0.845482

<region>
sample=Harmonica-Hohner-Special20-F/Releases/Normal/Hohner-Special20-F_Normal_rel_C6.wav
pitch_keycenter=84
lokey=81.0
hikey=85.0
volume=-4.367148

